{
    "patcher": {
        "fileversion": 1,
        "appversion": {
            "major": 9,
            "minor": 1,
            "revision": 2,
            "architecture": "x64",
            "modernui": 1
        },
        "classnamespace": "box",
        "rect": [ 59.0, 115.0, 996.0, 594.0 ],
        "boxes": [
            {
                "box": {
                    "id": "obj-55",
                    "maxclass": "newobj",
                    "numinlets": 1,
                    "numoutlets": 0,
                    "patching_rect": [ 371.0, 394.0, 32.0, 22.0 ],
                    "text": "print"
                }
            },
            {
                "box": {
                    "id": "obj-54",
                    "maxclass": "message",
                    "numinlets": 2,
                    "numoutlets": 1,
                    "outlettype": [ "" ],
                    "patching_rect": [ 353.0, 336.0, 74.0, 22.0 ],
                    "text": "Hello World!"
                }
            },
            {
                "box": {
                    "format": 6,
                    "id": "obj-51",
                    "maxclass": "flonum",
                    "numinlets": 1,
                    "numoutlets": 2,
                    "outlettype": [ "", "bang" ],
                    "parameter_enable": 0,
                    "patching_rect": [ 819.0, 78.0, 50.0, 22.0 ]
                }
            },
            {
                "box": {
                    "format": 6,
                    "id": "obj-50",
                    "maxclass": "flonum",
                    "numinlets": 1,
                    "numoutlets": 2,
                    "outlettype": [ "", "bang" ],
                    "parameter_enable": 0,
                    "patching_rect": [ 625.0, 82.0, 50.0, 22.0 ]
                }
            },
            {
                "box": {
                    "id": "obj-48",
                    "maxclass": "comment",
                    "numinlets": 1,
                    "numoutlets": 0,
                    "patching_rect": [ 876.0, 79.0, 117.0, 20.0 ],
                    "text": "sine wave oscilator"
                }
            },
            {
                "box": {
                    "id": "obj-47",
                    "linecount": 3,
                    "maxclass": "comment",
                    "numinlets": 1,
                    "numoutlets": 0,
                    "patching_rect": [ 781.0, 394.0, 118.0, 47.0 ],
                    "text": "<ezdac> addresses the physical outputs 1+2"
                }
            },
            {
                "box": {
                    "id": "obj-46",
                    "maxclass": "comment",
                    "numinlets": 1,
                    "numoutlets": 0,
                    "patching_rect": [ 781.0, 232.0, 77.0, 20.0 ],
                    "text": "<live.gain~> "
                }
            },
            {
                "box": {
                    "id": "obj-45",
                    "maxclass": "ezdac~",
                    "numinlets": 2,
                    "numoutlets": 0,
                    "patching_rect": [ 568.0, 444.0, 45.0, 45.0 ]
                }
            },
            {
                "box": {
                    "id": "obj-44",
                    "lastchannelcount": 0,
                    "maxclass": "live.gain~",
                    "numinlets": 2,
                    "numoutlets": 5,
                    "outlettype": [ "signal", "signal", "", "float", "list" ],
                    "parameter_enable": 1,
                    "patching_rect": [ 719.5, 232.0, 48.0, 136.0 ],
                    "saved_attribute_attributes": {
                        "valueof": {
                            "parameter_longname": "live.gain~",
                            "parameter_mmax": 6.0,
                            "parameter_mmin": -70.0,
                            "parameter_modmode": 3,
                            "parameter_shortname": "live.gain~",
                            "parameter_type": 0,
                            "parameter_unitstyle": 4
                        }
                    },
                    "varname": "live.gain~"
                }
            },
            {
                "box": {
                    "id": "obj-43",
                    "maxclass": "newobj",
                    "numinlets": 2,
                    "numoutlets": 1,
                    "outlettype": [ "signal" ],
                    "patching_rect": [ 819.0, 127.0, 70.0, 22.0 ],
                    "text": "cycle~ 600."
                }
            },
            {
                "box": {
                    "id": "obj-42",
                    "maxclass": "newobj",
                    "numinlets": 2,
                    "numoutlets": 1,
                    "outlettype": [ "signal" ],
                    "patching_rect": [ 722.0, 197.0, 29.5, 22.0 ],
                    "text": "+~"
                }
            },
            {
                "box": {
                    "id": "obj-41",
                    "maxclass": "newobj",
                    "numinlets": 2,
                    "numoutlets": 1,
                    "outlettype": [ "signal" ],
                    "patching_rect": [ 625.0, 127.0, 70.0, 22.0 ],
                    "text": "cycle~ 220."
                }
            },
            {
                "box": {
                    "id": "obj-40",
                    "maxclass": "comment",
                    "numinlets": 1,
                    "numoutlets": 0,
                    "patching_rect": [ 371.0, 165.0, 117.0, 20.0 ],
                    "text": "accumulation value"
                }
            },
            {
                "box": {
                    "id": "obj-39",
                    "maxclass": "comment",
                    "numinlets": 1,
                    "numoutlets": 0,
                    "patching_rect": [ 415.0, 203.0, 56.0, 20.0 ],
                    "text": "recurse"
                }
            },
            {
                "box": {
                    "id": "obj-38",
                    "maxclass": "comment",
                    "numinlets": 1,
                    "numoutlets": 0,
                    "patching_rect": [ 437.0, 128.0, 47.0, 20.0 ],
                    "text": "iterate"
                }
            },
            {
                "box": {
                    "id": "obj-37",
                    "maxclass": "comment",
                    "numinlets": 1,
                    "numoutlets": 0,
                    "patching_rect": [ 551.0, 239.0, 36.0, 20.0 ],
                    "text": "<i>"
                }
            },
            {
                "box": {
                    "id": "obj-36",
                    "maxclass": "number",
                    "numinlets": 1,
                    "numoutlets": 2,
                    "outlettype": [ "", "bang" ],
                    "parameter_enable": 0,
                    "patching_rect": [ 493.0, 238.0, 50.0, 22.0 ]
                }
            },
            {
                "box": {
                    "id": "obj-33",
                    "maxclass": "newobj",
                    "numinlets": 2,
                    "numoutlets": 1,
                    "outlettype": [ "int" ],
                    "patching_rect": [ 493.0, 202.0, 29.5, 22.0 ],
                    "text": "+"
                }
            },
            {
                "box": {
                    "id": "obj-32",
                    "maxclass": "comment",
                    "numinlets": 1,
                    "numoutlets": 0,
                    "patching_rect": [ 551.0, 165.0, 36.0, 20.0 ],
                    "text": "<i>"
                }
            },
            {
                "box": {
                    "id": "obj-31",
                    "maxclass": "number",
                    "numinlets": 1,
                    "numoutlets": 2,
                    "outlettype": [ "", "bang" ],
                    "parameter_enable": 0,
                    "patching_rect": [ 493.0, 164.0, 50.0, 22.0 ]
                }
            },
            {
                "box": {
                    "id": "obj-29",
                    "maxclass": "comment",
                    "numinlets": 1,
                    "numoutlets": 0,
                    "patching_rect": [ 525.0, 128.0, 36.0, 20.0 ],
                    "text": "<b>"
                }
            },
            {
                "box": {
                    "id": "obj-27",
                    "maxclass": "button",
                    "numinlets": 1,
                    "numoutlets": 1,
                    "outlettype": [ "bang" ],
                    "parameter_enable": 0,
                    "patching_rect": [ 493.0, 126.0, 24.0, 24.0 ]
                }
            },
            {
                "box": {
                    "id": "obj-23",
                    "maxclass": "comment",
                    "numinlets": 1,
                    "numoutlets": 0,
                    "patching_rect": [ 180.0, 256.0, 30.0, 20.0 ],
                    "text": "<f>"
                }
            },
            {
                "box": {
                    "id": "obj-24",
                    "maxclass": "comment",
                    "numinlets": 1,
                    "numoutlets": 0,
                    "patching_rect": [ 278.0, 256.0, 30.0, 20.0 ],
                    "text": "*C"
                }
            },
            {
                "box": {
                    "id": "obj-25",
                    "maxclass": "number",
                    "numinlets": 1,
                    "numoutlets": 2,
                    "outlettype": [ "", "bang" ],
                    "parameter_enable": 0,
                    "patching_rect": [ 218.0, 255.0, 50.0, 22.0 ]
                }
            },
            {
                "box": {
                    "id": "obj-22",
                    "maxclass": "newobj",
                    "numinlets": 1,
                    "numoutlets": 1,
                    "outlettype": [ "" ],
                    "patching_rect": [ 185.0, 211.0, 138.0, 22.0 ],
                    "text": "expr ((($f1 - 32.) *5) / 9.)"
                }
            },
            {
                "box": {
                    "id": "obj-21",
                    "maxclass": "comment",
                    "numinlets": 1,
                    "numoutlets": 0,
                    "patching_rect": [ 17.0, 255.0, 30.0, 20.0 ],
                    "text": "<f>"
                }
            },
            {
                "box": {
                    "id": "obj-20",
                    "maxclass": "comment",
                    "numinlets": 1,
                    "numoutlets": 0,
                    "patching_rect": [ 17.0, 91.0, 30.0, 20.0 ],
                    "text": "<f>"
                }
            },
            {
                "box": {
                    "id": "obj-19",
                    "maxclass": "comment",
                    "numinlets": 1,
                    "numoutlets": 0,
                    "patching_rect": [ 115.0, 255.0, 30.0, 20.0 ],
                    "text": "*C"
                }
            },
            {
                "box": {
                    "id": "obj-18",
                    "maxclass": "number",
                    "numinlets": 1,
                    "numoutlets": 2,
                    "outlettype": [ "", "bang" ],
                    "parameter_enable": 0,
                    "patching_rect": [ 55.0, 254.0, 50.0, 22.0 ]
                }
            },
            {
                "box": {
                    "id": "obj-17",
                    "maxclass": "newobj",
                    "numinlets": 2,
                    "numoutlets": 1,
                    "outlettype": [ "float" ],
                    "patching_rect": [ 55.0, 211.0, 29.5, 22.0 ],
                    "text": "/ 9."
                }
            },
            {
                "box": {
                    "id": "obj-13",
                    "maxclass": "newobj",
                    "numinlets": 2,
                    "numoutlets": 1,
                    "outlettype": [ "float" ],
                    "patching_rect": [ 55.0, 173.0, 29.5, 22.0 ],
                    "text": "* 5."
                }
            },
            {
                "box": {
                    "id": "obj-12",
                    "maxclass": "newobj",
                    "numinlets": 2,
                    "numoutlets": 1,
                    "outlettype": [ "float" ],
                    "patching_rect": [ 55.0, 137.0, 33.0, 22.0 ],
                    "text": "- 32."
                }
            },
            {
                "box": {
                    "id": "obj-11",
                    "maxclass": "comment",
                    "numinlets": 1,
                    "numoutlets": 0,
                    "patching_rect": [ 115.0, 91.0, 30.0, 20.0 ],
                    "text": "*F"
                }
            },
            {
                "box": {
                    "id": "obj-9",
                    "maxclass": "number",
                    "numinlets": 1,
                    "numoutlets": 2,
                    "outlettype": [ "", "bang" ],
                    "parameter_enable": 0,
                    "patching_rect": [ 55.0, 90.0, 50.0, 22.0 ]
                }
            },
            {
                "box": {
                    "id": "obj-5",
                    "maxclass": "comment",
                    "numinlets": 1,
                    "numoutlets": 0,
                    "patching_rect": [ 17.0, 55.0, 198.0, 20.0 ],
                    "text": "equation: *C = (((*F - 32.) *5) / 9.)"
                }
            },
            {
                "box": {
                    "id": "obj-3",
                    "maxclass": "comment",
                    "numinlets": 1,
                    "numoutlets": 0,
                    "patching_rect": [ 525.0, 20.0, 150.0, 20.0 ],
                    "text": "AUDIO RATE (MSP)"
                }
            },
            {
                "box": {
                    "id": "obj-2",
                    "maxclass": "comment",
                    "numinlets": 1,
                    "numoutlets": 0,
                    "patching_rect": [ 17.0, 20.0, 150.0, 20.0 ],
                    "text": "CONTROL RATE (Max)"
                }
            }
        ],
        "lines": [
            {
                "patchline": {
                    "destination": [ "obj-13", 0 ],
                    "source": [ "obj-12", 0 ]
                }
            },
            {
                "patchline": {
                    "destination": [ "obj-17", 0 ],
                    "source": [ "obj-13", 0 ]
                }
            },
            {
                "patchline": {
                    "destination": [ "obj-18", 0 ],
                    "source": [ "obj-17", 0 ]
                }
            },
            {
                "patchline": {
                    "destination": [ "obj-25", 0 ],
                    "source": [ "obj-22", 0 ]
                }
            },
            {
                "patchline": {
                    "destination": [ "obj-31", 0 ],
                    "source": [ "obj-27", 0 ]
                }
            },
            {
                "patchline": {
                    "destination": [ "obj-33", 0 ],
                    "source": [ "obj-31", 0 ]
                }
            },
            {
                "patchline": {
                    "destination": [ "obj-36", 0 ],
                    "source": [ "obj-33", 0 ]
                }
            },
            {
                "patchline": {
                    "destination": [ "obj-33", 1 ],
                    "midpoints": [ 502.5, 261.0, 480.0, 261.0, 480.0, 198.0, 513.0, 198.0 ],
                    "source": [ "obj-36", 0 ]
                }
            },
            {
                "patchline": {
                    "destination": [ "obj-42", 0 ],
                    "source": [ "obj-41", 0 ]
                }
            },
            {
                "patchline": {
                    "destination": [ "obj-44", 1 ],
                    "order": 0,
                    "source": [ "obj-42", 0 ]
                }
            },
            {
                "patchline": {
                    "destination": [ "obj-44", 0 ],
                    "order": 1,
                    "source": [ "obj-42", 0 ]
                }
            },
            {
                "patchline": {
                    "destination": [ "obj-42", 1 ],
                    "source": [ "obj-43", 0 ]
                }
            },
            {
                "patchline": {
                    "destination": [ "obj-45", 1 ],
                    "order": 0,
                    "source": [ "obj-44", 0 ]
                }
            },
            {
                "patchline": {
                    "destination": [ "obj-45", 0 ],
                    "order": 1,
                    "source": [ "obj-44", 0 ]
                }
            },
            {
                "patchline": {
                    "destination": [ "obj-41", 0 ],
                    "source": [ "obj-50", 0 ]
                }
            },
            {
                "patchline": {
                    "destination": [ "obj-43", 0 ],
                    "source": [ "obj-51", 0 ]
                }
            },
            {
                "patchline": {
                    "destination": [ "obj-55", 0 ],
                    "source": [ "obj-54", 0 ]
                }
            },
            {
                "patchline": {
                    "destination": [ "obj-12", 0 ],
                    "order": 1,
                    "source": [ "obj-9", 0 ]
                }
            },
            {
                "patchline": {
                    "destination": [ "obj-22", 0 ],
                    "order": 0,
                    "source": [ "obj-9", 0 ]
                }
            }
        ],
        "parameters": {
            "obj-44": [ "live.gain~", "live.gain~", 0 ],
            "inherited_shortname": 1
        },
        "autosave": 0
    }
}